<svg width="676" height="883" viewBox="0 0 676 883" fill="none" xmlns="http://www.w3.org/2000/svg">
<ellipse cx="124.394" cy="128.5" rx="124.394" ry="128.5" transform="matrix(0.559549 0.828797 0.828797 -0.559549 273.037 189.027)" fill="#D2E0EE" fill-opacity="0.3"/>
<ellipse cx="105.099" cy="108.383" rx="105.099" ry="108.383" transform="matrix(0.559549 0.828797 0.828797 -0.559549 201.004 117.023)" fill="#D2E0EE" fill-opacity="0.25"/>
<ellipse cx="20.5271" cy="21.3482" rx="20.5271" ry="21.3482" transform="matrix(0.559549 0.828797 0.828797 -0.559549 445 39.8906)" fill="#687DAC" fill-opacity="0.1"/>
<ellipse cx="105.099" cy="108.383" rx="105.099" ry="108.383" transform="matrix(0.559549 0.828797 0.828797 -0.559549 441.543 576.553)" fill="#F2E3D2" fill-opacity="0.35"/>
<ellipse cx="35.7171" cy="36.9488" rx="35.7171" ry="36.9488" transform="matrix(0.559549 0.828797 0.828797 -0.559549 378.613 40.959)" fill="#C9E7FC" fill-opacity="0.45"/>
<ellipse cx="105.099" cy="108.383" rx="105.099" ry="108.383" transform="matrix(0.559549 0.828797 0.828797 -0.559549 488.32 435.998)" fill="#D2E0EE" fill-opacity="0.3"/>
<ellipse cx="136.71" cy="141.637" rx="136.71" ry="141.637" transform="matrix(0.559549 0.828797 0.828797 -0.559549 405.789 303.486)" fill="#BEDFDB" fill-opacity="0.32"/>
<ellipse cx="75.4827" cy="78.0856" rx="75.4827" ry="78.0856" transform="matrix(0.667452 -0.744653 -0.744653 -0.667452 456.549 860.93)" fill="#F2E3D2" fill-opacity="0.35"/>
</svg>
