<svg width="295" height="229" viewBox="0 0 295 229" fill="none" xmlns="http://www.w3.org/2000/svg">
<ellipse cx="10.1288" cy="10" rx="10.1288" ry="10" transform="matrix(-1 0 0 1 21.4629 51.0811)" fill="#EDF4FC"/>
<line y1="-1.5" x2="191.552" y2="-1.5" transform="matrix(-0.562772 -0.826612 0.833222 -0.552938 125.764 226.081)" stroke="#EDF4FC" stroke-width="3"/>
<ellipse cx="5.81815" cy="5.74417" rx="5.81815" ry="5.74417" transform="matrix(-1 0 0 1 11.8164 165.081)" fill="#EDF4FC"/>
<line y1="-1.5" x2="64.0132" y2="-1.5" transform="matrix(-0.58021 -0.814467 0.821395 -0.57036 46.7598 226.472)" stroke="#EDF4FC" stroke-width="3"/>
<ellipse cx="8.10303" cy="8" rx="8.10303" ry="8" transform="matrix(-1 0 0 1 159.125 72.0811)" fill="#EDF4FC"/>
<ellipse cx="5.81815" cy="5.74417" rx="5.81815" ry="5.74417" transform="matrix(-1 0 0 1 107.154 119.081)" fill="#EDF4FC"/>
<line y1="-1.5" x2="175.451" y2="-1.5" transform="matrix(-0.595947 -0.803024 0.810235 -0.586105 260.398 226.081)" stroke="#EDF4FC" stroke-width="3"/>
<line y1="-1.5" x2="122.747" y2="-1.5" transform="matrix(-0.595947 -0.803024 0.810235 -0.586105 178.008 226.384)" stroke="#EDF4FC" stroke-width="3"/>
<ellipse cx="8.10303" cy="8" rx="8.10303" ry="8" transform="matrix(-1 0 0 1 77.1465 0.0810547)" fill="#EDF4FC"/>
<line y1="-1.5" x2="261.856" y2="-1.5" transform="matrix(-0.577445 -0.81643 0.823308 -0.567595 224.014 226.081)" stroke="#EDF4FC" stroke-width="3"/>
<ellipse cx="5.81815" cy="5.74417" rx="5.81815" ry="5.74417" transform="matrix(-1 0 0 1 238.816 129.081)" fill="#EDF4FC"/>
<line y1="-1.5" x2="106.242" y2="-1.5" transform="matrix(-0.54992 -0.835218 0.841591 -0.540115 294.945 226.55)" stroke="#EDF4FC" stroke-width="3"/>
</svg>

