<svg width="661" height="591" viewBox="0 0 661 591" fill="none" xmlns="http://www.w3.org/2000/svg">
<ellipse cx="288.142" cy="245.482" rx="344.675" ry="340.81" transform="rotate(-119.768 288.142 245.482)" fill="url(#paint0_radial_510_163)" fill-opacity="0.3"/>
<path d="M298.148 513.045C290.528 525.061 280.446 535.499 268.479 543.762C256.511 552.025 242.893 557.951 228.4 561.203C213.908 564.455 198.826 564.968 184.015 562.714C169.203 560.459 154.954 555.481 142.079 548.064C129.204 540.647 117.956 530.935 108.977 519.484C99.9979 508.033 93.4641 495.067 89.7485 481.325C86.0328 467.584 85.208 453.336 87.3212 439.396C89.4343 425.456 94.444 412.097 102.064 400.081L123.416 412.382C117.455 421.781 113.536 432.231 111.883 443.135C110.23 454.039 110.875 465.184 113.782 475.932C116.688 486.681 121.799 496.824 128.823 505.781C135.846 514.739 144.645 522.335 154.716 528.137C164.787 533.939 175.933 537.833 187.519 539.596C199.105 541.36 210.902 540.958 222.238 538.415C233.575 535.871 244.228 531.235 253.589 524.772C262.95 518.308 270.836 510.144 276.796 500.745L298.148 513.045Z" fill="url(#paint1_linear_510_163)"/>
<path d="M284.858 485.477C278.975 494.754 271.193 502.811 261.954 509.19C252.715 515.569 242.202 520.144 231.014 522.654C219.826 525.165 208.183 525.561 196.749 523.82C185.315 522.08 174.315 518.237 164.375 512.511C154.436 506.785 145.753 499.288 138.821 490.448C131.89 481.608 126.846 471.598 123.977 460.99C121.109 450.382 120.472 439.383 122.104 428.622C123.735 417.86 127.602 407.547 133.485 398.271L149.968 407.767C145.366 415.023 142.341 423.09 141.065 431.508C139.789 439.925 140.287 448.529 142.531 456.827C144.775 465.125 148.72 472.955 154.142 479.87C159.564 486.785 166.356 492.649 174.131 497.128C181.906 501.607 190.511 504.613 199.455 505.974C208.398 507.336 217.506 507.026 226.257 505.062C235.009 503.098 243.233 499.52 250.459 494.53C257.686 489.54 263.774 483.238 268.375 475.982L284.858 485.477Z" fill="url(#paint2_linear_510_163)"/>
<path d="M262.856 463.748C258.83 470.096 253.504 475.61 247.181 479.975C240.859 484.341 233.664 487.472 226.008 489.189C218.351 490.907 210.383 491.179 202.558 489.988C194.734 488.797 187.205 486.167 180.403 482.248C173.602 478.329 167.659 473.199 162.916 467.149C158.172 461.1 154.72 454.249 152.757 446.99C150.794 439.73 150.358 432.203 151.475 424.838C152.591 417.474 155.238 410.416 159.264 404.068L170.544 410.566C167.395 415.532 165.324 421.053 164.451 426.813C163.578 432.574 163.919 438.462 165.454 444.141C166.99 449.819 169.69 455.178 173.4 459.91C177.111 464.642 181.759 468.655 187.08 471.721C192.4 474.786 198.289 476.843 204.41 477.775C210.531 478.706 216.763 478.494 222.752 477.15C228.741 475.806 234.369 473.357 239.315 469.943C244.26 466.528 248.426 462.215 251.576 457.249L262.856 463.748Z" fill="url(#paint3_linear_510_163)"/>
<path d="M241.157 448.321C238.942 451.815 236.011 454.849 232.532 457.251C229.053 459.653 225.094 461.376 220.881 462.321C216.668 463.266 212.284 463.416 207.978 462.76C203.672 462.105 199.53 460.658 195.787 458.502C192.044 456.345 188.774 453.522 186.164 450.193C183.554 446.864 181.654 443.095 180.574 439.1C179.494 435.105 179.254 430.963 179.868 426.911C180.483 422.859 181.939 418.975 184.154 415.482L190.361 419.058C188.629 421.79 187.489 424.828 187.009 427.998C186.528 431.168 186.716 434.408 187.561 437.532C188.406 440.657 189.892 443.606 191.933 446.21C193.975 448.814 196.533 451.022 199.461 452.709C202.388 454.395 205.629 455.527 208.997 456.04C212.365 456.553 215.794 456.436 219.09 455.696C222.385 454.957 225.482 453.609 228.204 451.73C230.925 449.851 233.217 447.478 234.95 444.745L241.157 448.321Z" fill="url(#paint4_linear_510_163)"/>
<path d="M600.814 415.514C618.575 393.56 631.827 368.098 639.814 340.581C647.8 313.065 650.365 284.033 647.361 255.144C644.358 226.255 635.845 198.073 622.308 172.209C608.771 146.345 590.476 123.304 568.467 104.402C546.458 85.5006 521.167 71.1082 494.036 62.0469C466.906 52.9855 438.468 49.4326 410.346 51.5911C382.224 53.7495 354.97 61.577 330.138 74.6267C305.306 87.6763 283.384 105.692 265.623 127.647L302.122 158.992C316.015 141.819 333.163 127.727 352.587 117.519C372.011 107.311 393.33 101.188 415.327 99.5C437.324 97.8116 459.569 100.591 480.791 107.679C502.013 114.767 521.797 126.025 539.013 140.81C556.229 155.595 570.54 173.618 581.128 193.85C591.717 214.081 598.376 236.126 600.726 258.723C603.075 281.321 601.069 304.031 594.822 325.554C588.574 347.078 578.208 366.995 564.315 384.168L600.814 415.514Z" fill="url(#paint5_linear_510_163)"/>
<path d="M543.84 374.56C556.997 360.703 567.241 344.237 573.986 326.105C580.731 307.972 583.846 288.528 583.152 268.881C582.458 249.234 577.97 229.77 569.943 211.601C561.916 193.431 550.508 176.911 536.369 162.984C522.231 149.057 505.64 137.996 487.543 130.433C469.446 122.87 450.197 118.952 430.897 118.903C411.596 118.854 392.621 122.676 375.055 130.149C357.489 137.623 341.676 148.602 328.518 162.46L351.965 185.555C362.256 174.715 374.626 166.127 388.366 160.281C402.107 154.435 416.95 151.446 432.047 151.484C447.145 151.522 462.201 154.587 476.357 160.503C490.513 166.42 503.491 175.072 514.55 185.965C525.609 196.859 534.533 209.781 540.812 223.994C547.091 238.207 550.602 253.432 551.145 268.8C551.687 284.168 549.251 299.378 543.975 313.562C538.698 327.746 530.686 340.625 520.394 351.465L543.84 374.56Z" fill="url(#paint6_linear_510_163)"/>
<path d="M503.12 366.996C513.277 356.298 521.185 343.587 526.393 329.589C531.6 315.591 534.004 300.58 533.469 285.413C532.933 270.246 529.468 255.22 523.271 241.194C517.075 227.167 508.268 214.414 497.353 203.663C486.439 192.911 473.631 184.373 459.66 178.534C445.689 172.695 430.83 169.67 415.93 169.633C401.03 169.595 386.382 172.545 372.821 178.315C359.26 184.084 347.053 192.56 336.896 203.258L354.996 221.087C362.941 212.719 372.49 206.089 383.097 201.576C393.705 197.063 405.163 194.755 416.818 194.785C428.473 194.814 440.097 197.18 451.025 201.747C461.953 206.315 471.972 212.994 480.509 221.404C489.047 229.814 495.936 239.789 500.783 250.761C505.63 261.733 508.34 273.487 508.759 285.351C509.178 297.215 507.297 308.956 503.224 319.906C499.151 330.856 492.965 340.798 485.02 349.166L503.12 366.996Z" fill="url(#paint7_linear_510_163)"/>
<path d="M467.083 346.301C474.034 338.98 479.446 330.281 483.009 320.702C486.573 311.122 488.218 300.85 487.852 290.47C487.485 280.091 485.114 269.808 480.873 260.209C476.633 250.61 470.605 241.882 463.136 234.524C455.667 227.167 446.902 221.323 437.341 217.328C427.78 213.332 417.611 211.262 407.414 211.236C397.218 211.21 387.193 213.229 377.913 217.178C368.633 221.126 360.278 226.926 353.327 234.247L365.714 246.449C371.151 240.722 377.686 236.185 384.945 233.096C392.205 230.008 400.046 228.429 408.022 228.449C415.998 228.469 423.953 230.088 431.431 233.214C438.91 236.339 445.766 240.91 451.609 246.666C457.452 252.421 462.166 259.248 465.483 266.756C468.8 274.265 470.655 282.309 470.942 290.428C471.229 298.547 469.942 306.582 467.154 314.075C464.367 321.569 460.133 328.373 454.696 334.1L467.083 346.301Z" fill="url(#paint8_linear_510_163)"/>
<path d="M439.417 323.835C443.242 319.806 446.22 315.02 448.181 309.748C450.141 304.477 451.047 298.824 450.845 293.113C450.644 287.401 449.339 281.743 447.005 276.461C444.672 271.179 441.355 266.377 437.245 262.328C433.135 258.279 428.312 255.064 423.051 252.865C417.79 250.666 412.194 249.527 406.583 249.513C400.973 249.499 395.456 250.61 390.35 252.783C385.243 254.955 380.646 258.147 376.821 262.175L383.637 268.889C386.629 265.738 390.225 263.242 394.22 261.542C398.214 259.843 402.529 258.974 406.918 258.985C411.307 258.996 415.684 259.887 419.799 261.607C423.914 263.327 427.687 265.842 430.902 269.009C434.117 272.176 436.711 275.932 438.537 280.064C440.362 284.196 441.383 288.622 441.54 293.089C441.698 297.557 440.99 301.979 439.456 306.102C437.922 310.225 435.593 313.969 432.601 317.121L439.417 323.835Z" fill="url(#paint9_linear_510_163)"/>
<path d="M607.655 485.785C609.887 483.378 652.18 457.301 644.387 436.44C636.594 415.578 599.875 382.28 582.49 368.239C560.099 358.142 503.303 344.007 455.247 368.239C397.612 379.632 369.945 405.883 363.315 417.584C358.174 433.03 354.711 468.294 381.986 485.785C385.395 504.721 375.83 516.543 370.621 520.086L366.968 526.706H377.115C386.518 515.072 410.725 490.06 420.95 499.425C434.186 511.549 450.985 501.231 459.306 495.213C467.626 489.195 471.888 506.045 481.02 507.048C490.153 508.051 494.617 492.405 506.185 489.195C517.752 485.986 543.932 496.417 548.802 499.425C553.673 502.434 553.876 509.856 566.864 511.862C579.852 513.868 593.314 500.963 601.769 495.213C601.769 495.213 605.422 488.192 607.655 485.785Z" fill="#687DAC" fill-opacity="0.2"/>
<path d="M577.02 466.16C578.74 464.457 611.339 446.007 605.333 431.247C599.326 416.487 571.023 392.928 557.623 382.994C540.364 375.85 496.586 365.849 459.544 382.994C415.119 391.055 393.793 409.628 388.684 417.906C384.721 428.835 382.051 453.785 403.075 466.16C405.703 479.558 398.33 487.922 394.315 490.429L391.499 495.112H399.32C406.568 486.881 425.227 469.184 433.108 475.811C443.311 484.389 456.259 477.088 462.673 472.831C469.086 468.573 472.371 480.494 479.41 481.204C486.449 481.914 489.891 470.844 498.807 468.573C507.723 466.302 527.902 473.682 531.656 475.811C535.41 477.94 535.567 483.191 545.578 484.61C555.589 486.029 565.966 476.899 572.483 472.831C572.483 472.831 575.299 467.863 577.02 466.16Z" fill="#687DAC" fill-opacity="0.2"/>
<path d="M553.223 449.156C554.515 447.889 579.001 434.16 574.489 423.178C569.977 412.195 548.719 394.665 538.654 387.272C525.691 381.957 492.809 374.515 464.987 387.272C431.619 393.271 415.601 407.091 411.763 413.251C408.787 421.382 406.782 439.948 422.573 449.156C424.546 459.125 419.009 465.349 415.993 467.214L413.878 470.699H419.753C425.197 464.574 439.211 451.406 445.131 456.337C452.794 462.72 462.52 457.288 467.337 454.119C472.154 450.951 474.621 459.822 479.908 460.35C485.196 460.878 487.78 452.641 494.477 450.951C501.174 449.262 516.331 454.753 519.151 456.337C521.97 457.921 522.088 461.829 529.607 462.885C537.127 463.941 544.92 457.147 549.816 454.119C549.816 454.119 551.931 450.423 553.223 449.156Z" fill="#687DAC" fill-opacity="0.2"/>
<path d="M533.124 435.162C533.912 434.311 548.848 425.086 546.096 417.706C543.344 410.326 530.377 398.546 524.237 393.579C516.33 390.007 496.273 385.007 479.303 393.579C458.949 397.609 449.179 406.896 446.838 411.035C445.022 416.499 443.799 428.974 453.431 435.162C454.635 441.861 451.257 446.043 449.418 447.296L448.128 449.638H451.711C455.032 445.522 463.58 436.674 467.191 439.987C471.865 444.276 477.798 440.626 480.736 438.497C483.674 436.368 485.179 442.329 488.404 442.684C491.629 443.039 493.206 437.504 497.291 436.368C501.376 435.233 510.621 438.923 512.341 439.987C514.061 441.052 514.132 443.677 518.719 444.387C523.306 445.097 528.06 440.532 531.046 438.497C531.046 438.497 532.336 436.014 533.124 435.162Z" fill="#687DAC" fill-opacity="0.2"/>
<g filter="url(#filter0_f_510_163)">
<ellipse cx="9.82994" cy="9.70495" rx="9.82994" ry="9.70495" transform="matrix(-1 0 0 1 506.016 406.027)" fill="#EDF4FC"/>
</g>
<ellipse cx="9.82994" cy="9.70495" rx="9.82994" ry="9.70495" transform="matrix(-1 0 0 1 506.016 406.027)" fill="#EDF4FC"/>
<g filter="url(#filter1_f_510_163)">
<ellipse cx="5.98344" cy="5.48541" rx="5.98344" ry="5.48541" transform="matrix(-1 0 0 1 431.646 420.373)" fill="#EDF4FC"/>
</g>
<ellipse cx="5.98344" cy="5.48541" rx="5.98344" ry="5.48541" transform="matrix(-1 0 0 1 431.646 420.373)" fill="#EDF4FC"/>
<ellipse cx="5.98344" cy="5.90736" rx="5.98344" ry="5.90736" transform="matrix(-1 0 0 1 534.221 416.152)" fill="#EDF4FC"/>
<ellipse cx="5.98344" cy="5.90736" rx="5.98344" ry="5.90736" transform="matrix(-1 0 0 1 511.141 473.539)" fill="#EDF4FC"/>
<ellipse cx="5.55605" cy="5.48541" rx="5.55605" ry="5.48541" transform="matrix(-1 0 0 1 449.598 460.037)" fill="#EDF4FC"/>
<ellipse cx="5.98344" cy="5.48541" rx="5.98344" ry="5.48541" transform="matrix(-1 0 0 1 411.99 444.004)" fill="#EDF4FC"/>
<ellipse cx="5.55605" cy="5.48541" rx="5.55605" ry="5.48541" transform="matrix(-1 0 0 1 377.797 425.436)" fill="#EDF4FC"/>
<ellipse cx="5.98344" cy="5.48541" rx="5.98344" ry="5.48541" transform="matrix(-1 0 0 1 540.205 445.689)" fill="#EDF4FC"/>
<ellipse cx="5.55605" cy="5.90736" rx="5.55605" ry="5.90736" transform="matrix(-1 0 0 1 586.361 438.094)" fill="#EDF4FC"/>
<ellipse cx="5.98344" cy="5.90736" rx="5.98344" ry="5.90736" transform="matrix(-1 0 0 1 622.262 419.529)" fill="#EDF4FC"/>
<ellipse cx="5.55605" cy="5.90736" rx="5.55605" ry="5.90736" transform="matrix(-1 0 0 1 586.361 487.043)" fill="#EDF4FC"/>
<ellipse cx="5.98344" cy="5.90736" rx="5.98344" ry="5.90736" transform="matrix(-1 0 0 1 552.172 362.145)" fill="#EDF4FC"/>
<ellipse cx="5.98344" cy="5.48541" rx="5.98344" ry="5.48541" transform="matrix(-1 0 0 1 581.234 367.207)" fill="#EDF4FC"/>
<ellipse cx="2.99172" cy="2.95368" rx="2.99172" ry="2.95368" transform="matrix(-1 0 0 1 437.631 486.197)" fill="#EDF4FC"/>
<ellipse cx="2.99172" cy="2.95368" rx="2.99172" ry="2.95368" transform="matrix(-1 0 0 1 400.02 430.5)" fill="#EDF4FC"/>
<ellipse cx="2.56433" cy="2.95368" rx="2.56433" ry="2.95368" transform="matrix(-1 0 0 1 417.115 400.119)" fill="#EDF4FC"/>
<ellipse cx="2.99172" cy="2.95368" rx="2.99172" ry="2.95368" transform="matrix(-1 0 0 1 473.531 424.592)" fill="#EDF4FC"/>
<ellipse cx="2.56433" cy="2.95368" rx="2.56433" ry="2.95368" transform="matrix(-1 0 0 1 488.918 392.525)" fill="#EDF4FC"/>
<ellipse cx="2.99172" cy="2.95368" rx="2.99172" ry="2.95368" transform="matrix(-1 0 0 1 499.176 363.832)" fill="#EDF4FC"/>
<ellipse cx="2.99172" cy="2.53173" rx="2.99172" ry="2.53173" transform="matrix(-1 0 0 1 549.607 403.494)" fill="#EDF4FC"/>
<ellipse cx="2.99172" cy="2.95368" rx="2.99172" ry="2.95368" transform="matrix(-1 0 0 1 502.594 440.627)" fill="#EDF4FC"/>
<ellipse cx="2.56433" cy="2.95368" rx="2.56433" ry="2.95368" transform="matrix(-1 0 0 1 522.254 397.588)" fill="#EDF4FC"/>
<ellipse cx="2.99172" cy="2.95368" rx="2.99172" ry="2.95368" transform="matrix(-1 0 0 1 561.574 365.518)" fill="#EDF4FC"/>
<ellipse cx="2.99172" cy="2.95368" rx="2.99172" ry="2.95368" transform="matrix(-1 0 0 1 578.67 400.119)" fill="#EDF4FC"/>
<ellipse cx="2.99172" cy="2.95368" rx="2.99172" ry="2.95368" transform="matrix(-1 0 0 1 561.574 465.102)" fill="#EDF4FC"/>
<ellipse cx="2.56433" cy="2.95368" rx="2.56433" ry="2.95368" transform="matrix(-1 0 0 1 600.895 454.129)" fill="#EDF4FC"/>
<ellipse cx="2.56433" cy="2.95368" rx="2.56433" ry="2.95368" transform="matrix(-1 0 0 1 453.016 397.588)" fill="#EDF4FC"/>
<ellipse cx="2.99172" cy="2.53173" rx="2.99172" ry="2.53173" transform="matrix(-1 0 0 1 394.893 471.008)" fill="#EDF4FC"/>
<path d="M400.512 333.317C400.512 336.208 402.887 338.562 405.83 338.562C408.773 338.562 411.148 336.208 411.148 333.317C411.148 330.427 408.773 328.073 405.83 328.073C402.887 328.073 400.512 330.427 400.512 333.317Z" fill="#C6CEE0" stroke="#C6CEE0"/>
<line y1="-0.5" x2="71.8861" y2="-0.5" transform="matrix(-0.558438 -0.829546 -0.836077 0.548613 448.496 397.939)" stroke="#C6CEE0"/>
<line x1="1.5" y1="-1.5" x2="31.9852" y2="-1.5" transform="matrix(-0.99908 -0.0428859 -0.0439956 0.999032 466.438 428.577)" stroke="#D2E0EE" stroke-width="3" stroke-linecap="round"/>
<line x1="1.5" y1="-1.5" x2="33.7074" y2="-1.5" transform="matrix(-0.578388 0.815762 0.822657 0.568538 469.346 431.448)" stroke="#D2E0EE" stroke-width="3" stroke-linecap="round"/>
<line x1="1.5" y1="-1.5" x2="46.6026" y2="-1.5" transform="matrix(-0.937385 0.348294 0.35619 0.934414 496.496 446.767)" stroke="#D2E0EE" stroke-width="3" stroke-linecap="round"/>
<line x1="1.5" y1="-1.5" x2="22.9605" y2="-1.5" transform="matrix(-0.87215 -0.489239 -0.498796 0.866719 496.012 442.458)" stroke="#D2E0EE" stroke-width="3" stroke-linecap="round"/>
<line x1="1.5" y1="-1.5" x2="23.6918" y2="-1.5" transform="matrix(-0.153969 -0.988076 -0.988661 0.150168 503.77 472.614)" stroke="#D2E0EE" stroke-width="3" stroke-linecap="round"/>
<line x1="1.5" y1="-1.5" x2="22.6449" y2="-1.5" transform="matrix(-0.983953 -0.178428 -0.182901 0.983131 527.527 449.64)" stroke="#D2E0EE" stroke-width="3" stroke-linecap="round"/>
<line x1="1.5" y1="-1.5" x2="30.3765" y2="-1.5" transform="matrix(-0.988661 0.150168 0.153969 0.988076 573.102 444.851)" stroke="#D2E0EE" stroke-width="3" stroke-linecap="round"/>
<line x1="1.5" y1="-1.5" x2="34.2945" y2="-1.5" transform="matrix(-0.216724 0.976233 0.977379 0.211496 545.949 409.907)" stroke="#D2E0EE" stroke-width="3" stroke-linecap="round"/>
<line x1="1.5" y1="-1.5" x2="38.1203" y2="-1.5" transform="matrix(0.648578 0.761148 0.769264 -0.63893 549.83 408.472)" stroke="#D2E0EE" stroke-width="3" stroke-linecap="round"/>
<line x1="1.5" y1="-1.5" x2="19.8815" y2="-1.5" transform="matrix(0.997742 -0.0671629 -0.0688958 -0.997624 550.801 404.644)" stroke="#D2E0EE" stroke-width="3" stroke-linecap="round"/>
<line x1="1.5" y1="-1.5" x2="33.2818" y2="-1.5" transform="matrix(0.669103 0.74317 0.751612 -0.659605 550.801 373.528)" stroke="#D2E0EE" stroke-width="3" stroke-linecap="round"/>
<line x1="1.5" y1="-1.5" x2="28.5107" y2="-1.5" transform="matrix(0.581608 -0.813469 -0.820422 -0.571758 524.131 397.94)" stroke="#D2E0EE" stroke-width="3" stroke-linecap="round"/>
<line x1="1.5" y1="-1.5" x2="31.0272" y2="-1.5" transform="matrix(-0.566423 -0.824115 -0.830792 0.556583 516.859 396.505)" stroke="#D2E0EE" stroke-width="3" stroke-linecap="round"/>
<line x1="1.5" y1="-1.5" x2="35.8608" y2="-1.5" transform="matrix(-0.999261 -0.0384372 -0.0394321 0.999222 538.195 368.263)" stroke="#D2E0EE" stroke-width="3" stroke-linecap="round"/>
<line x1="1.5" y1="-1.5" x2="20.4171" y2="-1.5" transform="matrix(0.398192 -0.917302 -0.920952 -0.389675 487.285 391.239)" stroke="#D2E0EE" stroke-width="3" stroke-linecap="round"/>
<line x1="1.5" y1="-1.5" x2="16.6678" y2="-1.5" transform="matrix(0.987425 0.158087 0.162079 -0.986778 524.131 400.813)" stroke="#D2E0EE" stroke-width="3" stroke-linecap="round"/>
<line x1="1.5" y1="-1.5" x2="12.0283" y2="-1.5" transform="matrix(0.824309 -0.566141 -0.575989 -0.817457 505.223 409.907)" stroke="#D2E0EE" stroke-width="3" stroke-linecap="round"/>
<line x1="1.5" y1="-1.5" x2="14.2787" y2="-1.5" transform="matrix(0.983294 0.182023 0.18658 -0.98244 506.678 416.61)" stroke="#D2E0EE" stroke-width="3" stroke-linecap="round"/>
<line x1="1.5" y1="-1.5" x2="9.89924" y2="-1.5" transform="matrix(0.382798 0.923832 0.927228 -0.374497 521.707 404.644)" stroke="#D2E0EE" stroke-width="3" stroke-linecap="round"/>
<line x1="1.5" y1="-1.5" x2="24.4438" y2="-1.5" transform="matrix(-0.747533 0.664225 0.673684 0.73902 529.953 456.819)" stroke="#D2E0EE" stroke-width="3" stroke-linecap="round"/>
<line x1="1.5" y1="-1.5" x2="16.8524" y2="-1.5" transform="matrix(-0.81898 -0.573822 -0.583672 0.811989 555.164 465.435)" stroke="#D2E0EE" stroke-width="3" stroke-linecap="round"/>
<line x1="1.5" y1="-1.5" x2="27.6898" y2="-1.5" transform="matrix(0.431863 0.901939 0.906166 -0.422923 429.104 431.448)" stroke="#D2E0EE" stroke-width="3" stroke-linecap="round"/>
<line x1="1.5" y1="-1.5" x2="45.9255" y2="-1.5" transform="matrix(-0.981439 -0.191773 -0.196555 0.980493 497.951 476.925)" stroke="#D2E0EE" stroke-width="3" stroke-linecap="round"/>
<line x1="1.5" y1="-1.5" x2="41.4594" y2="-1.5" transform="matrix(-0.981895 0.189425 0.194153 0.980971 554.676 469.743)" stroke="#D2E0EE" stroke-width="3" stroke-linecap="round"/>
<line x1="1.5" y1="-1.5" x2="20.6537" y2="-1.5" transform="matrix(-0.678451 0.734646 0.743231 0.669035 577.465 449.64)" stroke="#D2E0EE" stroke-width="3" stroke-linecap="round"/>
<line x1="1.5" y1="-1.5" x2="27.3678" y2="-1.5" transform="matrix(-0.100772 -0.994909 -0.995162 0.0982508 578.92 436.235)" stroke="#D2E0EE" stroke-width="3" stroke-linecap="round"/>
<line x1="1.5" y1="-1.5" x2="26.1735" y2="-1.5" transform="matrix(-0.998653 0.0518924 0.0532338 0.998582 446.559 401.771)" stroke="#D2E0EE" stroke-width="3" stroke-linecap="round"/>
<line x1="1.5" y1="-1.5" x2="23.3765" y2="-1.5" transform="matrix(-0.682155 0.731208 0.739848 0.672774 448.496 403.685)" stroke="#D2E0EE" stroke-width="3" stroke-linecap="round"/>
<line x1="1.5" y1="-1.5" x2="24.5705" y2="-1.5" transform="matrix(-0.613718 -0.789525 -0.797051 0.603912 467.891 424.747)" stroke="#D2E0EE" stroke-width="3" stroke-linecap="round"/>
<line x1="1.5" y1="-1.5" x2="11.4769" y2="-1.5" transform="matrix(-0.896696 0.442647 0.451803 0.892118 486.314 420.438)" stroke="#D2E0EE" stroke-width="3" stroke-linecap="round"/>
<line x1="1.5" y1="-1.5" x2="6.8772" y2="-1.5" transform="matrix(-0.405138 -0.914256 -0.918023 0.396528 490.676 406.558)" stroke="#D2E0EE" stroke-width="3" stroke-linecap="round"/>
<line x1="1.5" y1="-1.5" x2="12.4571" y2="-1.5" transform="matrix(-0.10421 -0.994555 -0.994825 0.101604 498.436 440.065)" stroke="#D2E0EE" stroke-width="3" stroke-linecap="round"/>
<line x1="1.5" y1="-1.5" x2="32.3405" y2="-1.5" transform="matrix(-0.759352 -0.65068 -0.660248 0.751048 529.465 445.81)" stroke="#D2E0EE" stroke-width="3" stroke-linecap="round"/>
<line x1="1.5" y1="-1.5" x2="26.9492" y2="-1.5" transform="matrix(-0.988468 0.151433 0.155265 0.987873 482.438 396.505)" stroke="#D2E0EE" stroke-width="3" stroke-linecap="round"/>
<line x1="1.5" y1="-1.5" x2="24.0012" y2="-1.5" transform="matrix(-0.988661 -0.150168 -0.153969 0.988076 515.406 400.335)" stroke="#D2E0EE" stroke-width="3" stroke-linecap="round"/>
<line x1="1.5" y1="-1.5" x2="24.9022" y2="-1.5" transform="matrix(-0.459096 0.888387 0.893095 0.449867 411.648 407.036)" stroke="#D2E0EE" stroke-width="3" stroke-linecap="round"/>
<line x1="1.5" y1="-1.5" x2="15.6295" y2="-1.5" transform="matrix(-0.622705 0.782457 0.790138 0.612929 422.314 431.448)" stroke="#D2E0EE" stroke-width="3" stroke-linecap="round"/>
<line x1="1.5" y1="-1.5" x2="24.5642" y2="-1.5" transform="matrix(-0.930099 -0.367309 -0.375503 0.926821 435.891 463.521)" stroke="#D2E0EE" stroke-width="3" stroke-linecap="round"/>
<line x1="1.5" y1="-1.5" x2="6.01194" y2="-1.5" transform="matrix(-0.451803 -0.892118 -0.896696 0.442647 401.469 443.894)" stroke="#D2E0EE" stroke-width="3" stroke-linecap="round"/>
<path d="M380.635 371.135C380.635 374.025 383.01 376.379 385.953 376.379C388.897 376.379 391.271 374.025 391.271 371.135C391.271 368.245 388.897 365.891 385.953 365.891C383.01 365.891 380.635 368.245 380.635 371.135Z" fill="#C6CEE0" stroke="#C6CEE0"/>
<line y1="-0.5" x2="56.4636" y2="-0.5" transform="matrix(-0.597596 -0.801797 -0.809038 0.587756 422.316 420.916)" stroke="#C6CEE0"/>
<path d="M508.69 317.819C508.69 320.71 511.065 323.064 514.008 323.064C516.951 323.064 519.326 320.71 519.326 317.819C519.326 314.929 516.951 312.575 514.008 312.575C511.065 312.575 508.69 314.929 508.69 317.819Z" fill="#C6CEE0" stroke="#C6CEE0"/>
<line y1="-0.5" x2="46.2045" y2="-0.5" transform="matrix(-0.541402 -0.840764 -0.846981 0.531624 541.545 361.656)" stroke="#C6CEE0"/>
<path d="M432.125 272.53C432.125 275.421 434.5 277.774 437.444 277.774C440.387 277.774 442.762 275.421 442.762 272.53C442.762 269.64 440.387 267.286 437.444 267.286C434.5 267.286 432.125 269.64 432.125 272.53Z" fill="#C6CEE0" stroke="#C6CEE0"/>
<line y1="-0.5" x2="101.72" y2="-0.5" transform="matrix(-0.527146 -0.849775 -0.855729 0.517425 493.586 363.958)" stroke="#C6CEE0"/>
<line y1="-0.5" x2="75.8808" y2="-0.5" transform="matrix(-0.548208 -0.836342 -0.842684 0.538408 483.783 391.537)" stroke="#C6CEE0"/>
<path d="M434.938 324.702C434.938 327.592 437.313 329.946 440.256 329.946C443.199 329.946 445.574 327.592 445.574 324.702C445.574 321.812 443.199 319.458 440.256 319.458C437.313 319.458 434.938 321.812 434.938 324.702Z" fill="#C6CEE0" stroke="#C6CEE0"/>
<path d="M517.457 283.062C517.457 285.952 519.832 288.306 522.776 288.306C525.719 288.306 528.094 285.952 528.094 283.062C528.094 280.171 525.719 277.817 522.776 277.817C519.832 277.817 517.457 280.171 517.457 283.062Z" fill="#C6CEE0" stroke="#C6CEE0"/>
<line y1="-0.5" x2="92.4014" y2="-0.5" transform="matrix(-0.522588 -0.852585 -0.858455 0.51289 573.586 366.831)" stroke="#C6CEE0"/>
<path d="M45.5168 356.604C43.0091 353.9 -4.5015 324.605 4.25284 301.17C13.0072 277.735 54.2559 240.328 73.786 224.555C98.9395 213.212 162.743 197.334 216.728 224.555C281.474 237.354 312.555 266.843 320.002 279.988C325.777 297.339 329.668 336.954 299.028 356.604C295.198 377.876 305.943 391.156 311.795 395.137L315.898 402.573H304.499C293.936 389.503 266.743 361.405 255.256 371.927C240.387 385.546 221.516 373.955 212.168 367.195C202.821 360.434 198.034 379.363 187.775 380.49C177.516 381.616 172.5 364.04 159.506 360.434C146.511 356.829 117.102 368.547 111.63 371.927C106.159 375.307 105.931 383.644 91.3403 385.898C76.7497 388.151 61.6272 373.654 52.1281 367.195C52.1281 367.195 48.0245 359.308 45.5168 356.604Z" fill="#66AFA5" fill-opacity="0.2"/>
<path d="M79.9317 334.558C77.9988 332.645 41.3777 311.918 48.1256 295.337C54.8734 278.756 86.6678 252.291 101.722 241.13C121.11 233.105 170.289 221.871 211.901 241.13C261.807 250.186 285.764 271.05 291.504 280.351C295.956 292.627 298.955 320.655 275.338 334.558C272.385 349.608 280.668 359.004 285.178 361.821L288.341 367.082H279.555C271.413 357.835 250.452 337.955 241.598 345.399C230.137 355.035 215.591 346.834 208.386 342.051C201.182 337.268 197.492 350.66 189.584 351.458C181.676 352.255 177.81 339.819 167.794 337.268C157.778 334.717 135.109 343.008 130.892 345.399C126.674 347.791 126.499 353.69 115.252 355.284C104.006 356.878 92.3496 346.621 85.0277 342.051C85.0277 342.051 81.8647 336.471 79.9317 334.558Z" fill="#66AFA5" fill-opacity="0.2"/>
<path d="M106.666 315.456C105.215 314.033 77.7084 298.61 82.7767 286.272C87.845 273.935 111.726 254.242 123.033 245.937C137.595 239.966 174.534 231.606 205.789 245.937C243.273 252.676 261.267 268.201 265.579 275.121C268.922 284.256 271.175 305.111 253.436 315.456C251.219 326.655 257.44 333.646 260.827 335.742L263.203 339.657H256.604C250.488 332.776 234.745 317.984 228.094 323.523C219.486 330.693 208.56 324.591 203.149 321.032C197.737 317.473 194.966 327.438 189.026 328.031C183.087 328.624 180.183 319.371 172.66 317.473C165.137 315.575 148.11 321.744 144.943 323.523C141.775 325.303 141.643 329.692 133.196 330.878C124.749 332.065 115.993 324.433 110.494 321.032C110.494 321.032 108.118 316.88 106.666 315.456Z" fill="#66AFA5" fill-opacity="0.2"/>
<path d="M129.241 299.735C128.355 298.778 111.577 288.415 114.669 280.125C117.76 271.834 132.327 258.601 139.224 253.021C148.106 249.009 170.638 243.391 189.702 253.021C212.567 257.549 223.543 267.981 226.173 272.631C228.212 278.77 229.586 292.784 218.766 299.735C217.413 307.26 221.208 311.958 223.274 313.366L224.723 315.997H220.698C216.968 311.373 207.365 301.434 203.308 305.156C198.057 309.974 191.393 305.873 188.092 303.482C184.791 301.09 183.101 307.786 179.478 308.185C175.855 308.583 174.084 302.366 169.495 301.09C164.906 299.815 154.52 303.96 152.588 305.156C150.656 306.351 150.575 309.301 145.423 310.098C140.27 310.895 134.93 305.767 131.575 303.482C131.575 303.482 130.126 300.691 129.241 299.735Z" fill="#66AFA5" fill-opacity="0.2"/>
<g filter="url(#filter2_f_510_163)">
<ellipse cx="170.738" cy="277.907" rx="11.0427" ry="10.9023" fill="#EDF4FC"/>
</g>
<ellipse cx="170.738" cy="277.907" rx="11.0427" ry="10.9023" fill="#EDF4FC"/>
<ellipse cx="249.958" cy="289.283" rx="6.72166" ry="6.16218" fill="#EDF4FC"/>
<ellipse cx="134.729" cy="285.018" rx="6.72166" ry="6.63619" fill="#EDF4FC"/>
<ellipse cx="160.657" cy="349.484" rx="6.72166" ry="6.63619" fill="#EDF4FC"/>
<g filter="url(#filter3_f_510_163)">
<ellipse cx="229.312" cy="333.84" rx="6.24154" ry="6.16218" fill="#EDF4FC"/>
</g>
<ellipse cx="229.312" cy="333.84" rx="6.24154" ry="6.16218" fill="#EDF4FC"/>
<ellipse cx="272.044" cy="315.828" rx="6.72166" ry="6.16218" fill="#EDF4FC"/>
<ellipse cx="309.974" cy="294.973" rx="6.24154" ry="6.16218" fill="#EDF4FC"/>
<ellipse cx="128.011" cy="317.724" rx="6.72166" ry="6.16218" fill="#EDF4FC"/>
<g filter="url(#filter4_f_510_163)">
<ellipse cx="75.6751" cy="309.665" rx="6.24154" ry="6.63619" fill="#EDF4FC"/>
</g>
<ellipse cx="75.6751" cy="309.665" rx="6.24154" ry="6.63619" fill="#EDF4FC"/>
<ellipse cx="35.8252" cy="288.808" rx="6.72166" ry="6.63619" fill="#EDF4FC"/>
<ellipse cx="75.6751" cy="364.651" rx="6.24154" ry="6.63619" fill="#EDF4FC"/>
<ellipse cx="114.565" cy="224.343" rx="6.72166" ry="6.63619" fill="#EDF4FC"/>
<ellipse cx="81.917" cy="229.557" rx="6.72166" ry="6.16218" fill="#EDF4FC"/>
<ellipse cx="239.876" cy="360.385" rx="3.36083" ry="3.3181" fill="#EDF4FC"/>
<ellipse cx="282.126" cy="297.816" rx="3.36083" ry="3.3181" fill="#EDF4FC"/>
<ellipse cx="262.443" cy="263.686" rx="2.88071" ry="3.3181" fill="#EDF4FC"/>
<ellipse cx="199.546" cy="291.179" rx="3.36083" ry="3.3181" fill="#EDF4FC"/>
<ellipse cx="181.783" cy="255.153" rx="2.88071" ry="3.3181" fill="#EDF4FC"/>
<ellipse cx="170.74" cy="222.921" rx="3.36083" ry="3.3181" fill="#EDF4FC"/>
<ellipse cx="114.083" cy="267.004" rx="3.36083" ry="2.84408" fill="#EDF4FC"/>
<ellipse cx="166.898" cy="309.192" rx="3.36083" ry="3.3181" fill="#EDF4FC"/>
<ellipse cx="144.334" cy="260.842" rx="2.88071" ry="3.3181" fill="#EDF4FC"/>
<ellipse cx="100.64" cy="224.818" rx="3.36083" ry="3.3181" fill="#EDF4FC"/>
<ellipse cx="81.439" cy="263.686" rx="3.36083" ry="3.3181" fill="#EDF4FC"/>
<ellipse cx="100.64" cy="336.684" rx="3.36083" ry="3.3181" fill="#EDF4FC"/>
<ellipse cx="55.9901" cy="324.361" rx="2.88071" ry="3.3181" fill="#EDF4FC"/>
<ellipse cx="222.111" cy="260.842" rx="2.88071" ry="3.3181" fill="#EDF4FC"/>
<ellipse cx="287.886" cy="342.847" rx="3.36083" ry="2.84408" fill="#EDF4FC"/>
<ellipse cx="272.63" cy="185.826" rx="6.53598" ry="6.45287" fill="#BEDFDB"/>
<line y1="-0.5" x2="80.7551" y2="-0.5" transform="matrix(0.558438 -0.829546 0.836077 0.548613 224.701 258.42)" stroke="#BEDFDB"/>
<ellipse cx="233.573" cy="175.646" rx="6.53598" ry="6.45287" fill="#BEDFDB"/>
<line y1="-0.5" x2="85.2427" y2="-0.5" transform="matrix(0.548208 -0.836342 0.842684 0.538408 184.008 252.543)" stroke="#BEDFDB"/>
<line x1="1.5" y1="-1.5" x2="36.1165" y2="-1.5" transform="matrix(0.99908 -0.0428859 0.0439956 0.999032 204.16 292.337)" stroke="#D2E0EE" stroke-width="3" stroke-linecap="round"/>
<g filter="url(#filter5_f_510_163)">
<line x1="1" y1="-1" x2="38.5512" y2="-1" transform="matrix(0.578388 0.815762 -0.822657 0.568538 200.895 295.562)" stroke="#D2E0EE" stroke-width="2" stroke-linecap="round"/>
</g>
<line x1="1" y1="-1" x2="38.5512" y2="-1" transform="matrix(0.578388 0.815762 -0.822657 0.568538 200.895 295.562)" stroke="#D2E0EE" stroke-width="2" stroke-linecap="round"/>
<line x1="1.5" y1="-1.5" x2="52.5374" y2="-1.5" transform="matrix(0.937385 0.348294 -0.35619 0.934414 170.391 312.77)" stroke="#D2E0EE" stroke-width="3" stroke-linecap="round"/>
<line x1="1.5" y1="-1.5" x2="25.9784" y2="-1.5" transform="matrix(0.87215 -0.489239 0.498796 0.866719 170.936 307.931)" stroke="#D2E0EE" stroke-width="3" stroke-linecap="round"/>
<line x1="1.5" y1="-1.5" x2="26.7999" y2="-1.5" transform="matrix(0.153969 -0.988076 0.988661 0.150168 162.223 341.808)" stroke="#D2E0EE" stroke-width="3" stroke-linecap="round"/>
<line x1="1.5" y1="-1.5" x2="25.6238" y2="-1.5" transform="matrix(0.983953 -0.178428 0.182901 0.983131 135.531 315.996)" stroke="#D2E0EE" stroke-width="3" stroke-linecap="round"/>
<line x1="1.5" y1="-1.5" x2="34.3093" y2="-1.5" transform="matrix(0.988661 0.150168 -0.153969 0.988076 84.3359 310.619)" stroke="#D2E0EE" stroke-width="3" stroke-linecap="round"/>
<line x1="1.5" y1="-1.5" x2="38.7107" y2="-1.5" transform="matrix(0.216724 0.976233 -0.977379 0.211496 114.836 271.363)" stroke="#D2E0EE" stroke-width="3" stroke-linecap="round"/>
<line x1="1.5" y1="-1.5" x2="43.0085" y2="-1.5" transform="matrix(-0.648578 0.761148 -0.769264 -0.63893 110.479 269.751)" stroke="#D2E0EE" stroke-width="3" stroke-linecap="round"/>
<line x1="1.5" y1="-1.5" x2="22.5195" y2="-1.5" transform="matrix(-0.997742 -0.0671629 0.0688958 -0.997624 109.389 265.448)" stroke="#D2E0EE" stroke-width="3" stroke-linecap="round"/>
<line x1="1.5" y1="-1.5" x2="37.5731" y2="-1.5" transform="matrix(-0.669103 0.74317 -0.751612 -0.659605 109.389 230.495)" stroke="#D2E0EE" stroke-width="3" stroke-linecap="round"/>
<line x1="1.5" y1="-1.5" x2="32.2133" y2="-1.5" transform="matrix(-0.581608 -0.813469 0.820422 -0.571758 139.344 257.92)" stroke="#D2E0EE" stroke-width="3" stroke-linecap="round"/>
<line x1="1.5" y1="-1.5" x2="35.0403" y2="-1.5" transform="matrix(0.566423 -0.824115 0.830792 0.556583 147.518 256.308)" stroke="#D2E0EE" stroke-width="3" stroke-linecap="round"/>
<line x1="1.5" y1="-1.5" x2="40.4702" y2="-1.5" transform="matrix(0.999261 -0.0384372 0.0394321 0.999222 123.551 224.581)" stroke="#D2E0EE" stroke-width="3" stroke-linecap="round"/>
<line x1="1.5" y1="-1.5" x2="23.1212" y2="-1.5" transform="matrix(-0.398192 -0.917302 0.920952 -0.389675 180.742 250.393)" stroke="#D2E0EE" stroke-width="3" stroke-linecap="round"/>
<line x1="1.5" y1="-1.5" x2="18.9092" y2="-1.5" transform="matrix(-0.987425 0.158087 -0.162079 -0.986778 139.344 261.146)" stroke="#D2E0EE" stroke-width="3" stroke-linecap="round"/>
<line x1="1.5" y1="-1.5" x2="13.6973" y2="-1.5" transform="matrix(-0.824309 -0.566141 0.575989 -0.817457 160.59 271.363)" stroke="#D2E0EE" stroke-width="3" stroke-linecap="round"/>
<line x1="1.5" y1="-1.5" x2="16.2254" y2="-1.5" transform="matrix(-0.983294 0.182023 -0.18658 -0.98244 158.953 278.892)" stroke="#D2E0EE" stroke-width="3" stroke-linecap="round"/>
<line x1="1.5" y1="-1.5" x2="11.3057" y2="-1.5" transform="matrix(-0.382798 0.923832 -0.927228 -0.374497 142.07 265.448)" stroke="#D2E0EE" stroke-width="3" stroke-linecap="round"/>
<line x1="1.5" y1="-1.5" x2="27.6447" y2="-1.5" transform="matrix(0.747533 0.664225 -0.673684 0.73902 132.811 324.063)" stroke="#D2E0EE" stroke-width="3" stroke-linecap="round"/>
<line x1="1.5" y1="-1.5" x2="19.1166" y2="-1.5" transform="matrix(0.81898 -0.573822 0.583672 0.811989 104.484 333.742)" stroke="#D2E0EE" stroke-width="3" stroke-linecap="round"/>
<line x1="1.5" y1="-1.5" x2="31.2912" y2="-1.5" transform="matrix(-0.431863 0.901939 -0.906166 -0.422923 246.098 295.562)" stroke="#D2E0EE" stroke-width="3" stroke-linecap="round"/>
<line x1="1.5" y1="-1.5" x2="51.7767" y2="-1.5" transform="matrix(0.981439 -0.191773 0.196555 0.980493 168.758 346.647)" stroke="#D2E0EE" stroke-width="3" stroke-linecap="round"/>
<line x1="1.5" y1="-1.5" x2="46.7596" y2="-1.5" transform="matrix(0.981895 0.189425 -0.194153 0.980971 105.033 338.58)" stroke="#D2E0EE" stroke-width="3" stroke-linecap="round"/>
<line x1="1.5" y1="-1.5" x2="23.387" y2="-1.5" transform="matrix(0.678451 0.734646 -0.743231 0.669035 79.4336 315.996)" stroke="#D2E0EE" stroke-width="3" stroke-linecap="round"/>
<line x1="1.5" y1="-1.5" x2="30.9295" y2="-1.5" transform="matrix(0.100772 -0.994909 0.995162 0.0982508 77.7988 300.939)" stroke="#D2E0EE" stroke-width="3" stroke-linecap="round"/>
<line x1="1.5" y1="-1.5" x2="29.5878" y2="-1.5" transform="matrix(0.998653 0.0518924 -0.0532338 0.998582 226.492 262.222)" stroke="#D2E0EE" stroke-width="3" stroke-linecap="round"/>
<line x1="1.5" y1="-1.5" x2="26.4457" y2="-1.5" transform="matrix(0.682155 0.731208 -0.739848 0.672774 224.312 264.373)" stroke="#D2E0EE" stroke-width="3" stroke-linecap="round"/>
<line x1="1.5" y1="-1.5" x2="27.787" y2="-1.5" transform="matrix(0.613718 -0.789525 0.797051 0.603912 202.527 288.033)" stroke="#D2E0EE" stroke-width="3" stroke-linecap="round"/>
<line x1="1.5" y1="-1.5" x2="13.0779" y2="-1.5" transform="matrix(0.896696 0.442647 -0.451803 0.892118 181.83 283.193)" stroke="#D2E0EE" stroke-width="3" stroke-linecap="round"/>
<line x1="1.5" y1="-1.5" x2="7.91075" y2="-1.5" transform="matrix(0.405138 -0.914256 0.918023 0.396528 176.93 267.6)" stroke="#D2E0EE" stroke-width="3" stroke-linecap="round"/>
<line x1="1.5" y1="-1.5" x2="14.1791" y2="-1.5" transform="matrix(0.10421 -0.994555 0.994825 0.101604 168.211 305.241)" stroke="#D2E0EE" stroke-width="3" stroke-linecap="round"/>
<line x1="1.5" y1="-1.5" x2="36.5156" y2="-1.5" transform="matrix(0.759352 -0.65068 0.660248 0.751048 133.352 311.694)" stroke="#D2E0EE" stroke-width="3" stroke-linecap="round"/>
<line x1="1.5" y1="-1.5" x2="30.4591" y2="-1.5" transform="matrix(0.988468 0.151433 -0.155265 0.987873 186.188 256.308)" stroke="#D2E0EE" stroke-width="3" stroke-linecap="round"/>
<line x1="1.5" y1="-1.5" x2="27.1474" y2="-1.5" transform="matrix(0.988661 -0.150168 0.153969 0.988076 149.15 260.609)" stroke="#D2E0EE" stroke-width="3" stroke-linecap="round"/>
<line x1="1.5" y1="-1.5" x2="28.1596" y2="-1.5" transform="matrix(0.459096 0.888387 -0.893095 0.449867 265.709 268.138)" stroke="#D2E0EE" stroke-width="3" stroke-linecap="round"/>
<line x1="1.5" y1="-1.5" x2="17.7429" y2="-1.5" transform="matrix(0.622705 0.782457 -0.790138 0.612929 253.725 295.562)" stroke="#D2E0EE" stroke-width="3" stroke-linecap="round"/>
<line x1="1.5" y1="-1.5" x2="27.7799" y2="-1.5" transform="matrix(0.930099 -0.367309 0.375503 0.926821 238.477 331.59)" stroke="#D2E0EE" stroke-width="3" stroke-linecap="round"/>
<line x1="1.5" y1="-1.5" x2="6.93875" y2="-1.5" transform="matrix(0.451803 -0.892118 0.896696 0.442647 277.146 309.544)" stroke="#D2E0EE" stroke-width="3" stroke-linecap="round"/>
<ellipse cx="294.968" cy="228.308" rx="6.53598" ry="6.45287" fill="#BEDFDB"/>
<line y1="-0.5" x2="63.4299" y2="-0.5" transform="matrix(0.597596 -0.801797 0.809038 0.587756 254.117 284.233)" stroke="#BEDFDB"/>
<ellipse cx="152.114" cy="168.533" rx="6.53598" ry="6.45287" fill="#BEDFDB"/>
<line y1="-0.5" x2="51.9051" y2="-0.5" transform="matrix(0.541402 -0.840764 0.846981 0.531624 121.18 217.777)" stroke="#BEDFDB"/>
<ellipse cx="237.13" cy="117.533" rx="6.53598" ry="6.45287" fill="#BEDFDB"/>
<line y1="-0.5" x2="114.27" y2="-0.5" transform="matrix(0.527146 -0.849775 0.855729 0.517425 174.059 220.24)" stroke="#BEDFDB"/>
<ellipse cx="141.259" cy="129.362" rx="6.53598" ry="6.45287" fill="#BEDFDB"/>
<line y1="-0.5" x2="103.802" y2="-0.5" transform="matrix(0.522588 -0.852585 0.858455 0.51289 84.1797 223.467)" stroke="#BEDFDB"/>
<defs>
<filter id="filter0_f_510_163" x="482.355" y="402.027" width="27.6602" height="27.4102" filterUnits="userSpaceOnUse" color-interpolation-filters="sRGB">
<feFlood flood-opacity="0" result="BackgroundImageFix"/>
<feBlend mode="normal" in="SourceGraphic" in2="BackgroundImageFix" result="shape"/>
<feGaussianBlur stdDeviation="2" result="effect1_foregroundBlur_510_163"/>
</filter>
<filter id="filter1_f_510_163" x="415.68" y="416.373" width="19.9668" height="18.9707" filterUnits="userSpaceOnUse" color-interpolation-filters="sRGB">
<feFlood flood-opacity="0" result="BackgroundImageFix"/>
<feBlend mode="normal" in="SourceGraphic" in2="BackgroundImageFix" result="shape"/>
<feGaussianBlur stdDeviation="2" result="effect1_foregroundBlur_510_163"/>
</filter>
<filter id="filter2_f_510_163" x="155.695" y="263.005" width="30.0859" height="29.8047" filterUnits="userSpaceOnUse" color-interpolation-filters="sRGB">
<feFlood flood-opacity="0" result="BackgroundImageFix"/>
<feBlend mode="normal" in="SourceGraphic" in2="BackgroundImageFix" result="shape"/>
<feGaussianBlur stdDeviation="2" result="effect1_foregroundBlur_510_163"/>
</filter>
<filter id="filter3_f_510_163" x="219.07" y="323.678" width="20.4824" height="20.3242" filterUnits="userSpaceOnUse" color-interpolation-filters="sRGB">
<feFlood flood-opacity="0" result="BackgroundImageFix"/>
<feBlend mode="normal" in="SourceGraphic" in2="BackgroundImageFix" result="shape"/>
<feGaussianBlur stdDeviation="2" result="effect1_foregroundBlur_510_163"/>
</filter>
<filter id="filter4_f_510_163" x="65.4336" y="299.029" width="20.4824" height="21.2725" filterUnits="userSpaceOnUse" color-interpolation-filters="sRGB">
<feFlood flood-opacity="0" result="BackgroundImageFix"/>
<feBlend mode="normal" in="SourceGraphic" in2="BackgroundImageFix" result="shape"/>
<feGaussianBlur stdDeviation="2" result="effect1_foregroundBlur_510_163"/>
</filter>
<filter id="filter5_f_510_163" x="197.289" y="290.814" width="31.7305" height="40.6211" filterUnits="userSpaceOnUse" color-interpolation-filters="sRGB">
<feFlood flood-opacity="0" result="BackgroundImageFix"/>
<feBlend mode="normal" in="SourceGraphic" in2="BackgroundImageFix" result="shape"/>
<feGaussianBlur stdDeviation="2" result="effect1_foregroundBlur_510_163"/>
</filter>
<radialGradient id="paint0_radial_510_163" cx="0" cy="0" r="1" gradientUnits="userSpaceOnUse" gradientTransform="translate(84.3423 245.482) rotate(51.9117) scale(330.374 331.285)">
<stop stop-color="#87A9CB" stop-opacity="0.59"/>
<stop offset="1" stop-color="#48E64E" stop-opacity="0"/>
</radialGradient>
<linearGradient id="paint1_linear_510_163" x1="155.542" y1="498.84" x2="118.691" y2="546.202" gradientUnits="userSpaceOnUse">
<stop stop-color="#D5EAEE"/>
<stop offset="0.598958" stop-color="#EDF4FC"/>
</linearGradient>
<linearGradient id="paint2_linear_510_163" x1="174.769" y1="474.511" x2="140.086" y2="511.861" gradientUnits="userSpaceOnUse">
<stop stop-color="#D4E8EE"/>
<stop offset="0.598958" stop-color="#EDF4FC"/>
</linearGradient>
<linearGradient id="paint3_linear_510_163" x1="187.516" y1="456.243" x2="178.318" y2="481.125" gradientUnits="userSpaceOnUse">
<stop stop-color="#D4E9EE"/>
<stop offset="0.598958" stop-color="#EDF4FC"/>
</linearGradient>
<linearGradient id="paint4_linear_510_163" x1="199.701" y1="444.192" x2="192.98" y2="456.041" gradientUnits="userSpaceOnUse">
<stop stop-color="#D5EAEF"/>
<stop offset="0.598958" stop-color="#EDF4FC"/>
</linearGradient>
<linearGradient id="paint5_linear_510_163" x1="502.466" y1="172.79" x2="607.682" y2="60.4924" gradientUnits="userSpaceOnUse">
<stop stop-color="#E1EFF8"/>
<stop offset="0.598958" stop-color="#EDF4FC"/>
</linearGradient>
<linearGradient id="paint6_linear_510_163" x1="476.394" y1="197.05" x2="540.087" y2="114.099" gradientUnits="userSpaceOnUse">
<stop stop-color="#D6EBEF"/>
<stop offset="0.598958" stop-color="#EDF4FC"/>
</linearGradient>
<linearGradient id="paint7_linear_510_163" x1="451.053" y1="229.961" x2="500.223" y2="165.924" gradientUnits="userSpaceOnUse">
<stop stop-color="#D9EEF1"/>
<stop offset="0.598958" stop-color="#EDF4FC"/>
</linearGradient>
<linearGradient id="paint8_linear_510_163" x1="431.451" y1="252.521" x2="465.1" y2="208.698" gradientUnits="userSpaceOnUse">
<stop stop-color="#D6EAEF"/>
<stop offset="0.598958" stop-color="#EDF4FC"/>
</linearGradient>
<linearGradient id="paint9_linear_510_163" x1="413.431" y1="282.309" x2="438.207" y2="248.044" gradientUnits="userSpaceOnUse">
<stop stop-color="#D4E9EE"/>
<stop offset="0.598958" stop-color="#EDF4FC"/>
</linearGradient>
</defs>
</svg>
