<svg width="459" height="519" viewBox="0 0 459 519" fill="none" xmlns="http://www.w3.org/2000/svg">
<path d="M-70.6134 362.55L17.4141 310.835L105.441 362.55V465.994L17.4141 517.709L-70.6134 465.994V362.55Z" stroke="#5B76D5" stroke-opacity="0.45"/>
<path d="M106.863 53.073L194.891 1.35822L282.918 53.073V156.518L194.891 208.232L106.863 156.518V53.073Z" stroke="#5B76D5" stroke-opacity="0.45"/>
<path d="M18.1249 206.419L106.152 154.704L194.18 206.419V309.863L106.152 361.578L18.1249 309.863V206.419Z" fill="#D2E0EE" stroke="#2F4B8A"/>
<path d="M370.334 336.259L436.729 375.265V453.276L370.334 492.282L303.939 453.276V375.265L370.334 336.259Z" fill="#D2E0EE"/>
<path d="M106.863 362.55L194.891 310.835L282.918 362.55V465.994L194.891 517.709L106.863 465.994V362.55Z" stroke="#5B76D5" stroke-opacity="0.45"/>
<path d="M282.309 362.55L370.336 310.835L458.363 362.55V465.994L370.336 517.709L282.309 465.994V362.55Z" stroke="#5B76D5" stroke-opacity="0.45"/>
</svg>
