<svg width="652" height="574" viewBox="0 0 652 574" fill="none" xmlns="http://www.w3.org/2000/svg">
<path d="M280.453 361.958L368.48 310.243L456.508 361.958V465.402L368.48 517.117L280.453 465.402V361.958Z" stroke="#5B76D5" stroke-opacity="0.45"/>
<path d="M457.93 52.4812L545.957 0.766426L633.984 52.4812V155.926L545.957 207.641L457.93 155.926V52.4812Z" stroke="#5B76D5" stroke-opacity="0.45"/>
<path d="M546.559 205.827L634.586 154.112L722.613 205.827V309.272L634.586 360.986L546.559 309.272V205.827Z" stroke="#5B76D5" stroke-opacity="0.45"/>
<path d="M369.191 205.827L457.219 154.112L545.246 205.827V309.272L457.219 360.986L369.191 309.272V205.827Z" stroke="#5B76D5" stroke-opacity="0.45"/>
<path d="M545.957 309.663L634.484 361.672V465.689L545.957 517.697L457.43 465.689V361.672L545.957 309.663Z" fill="#D2E0EE"/>
<path d="M14.7577 418.116L102.785 366.401L190.813 418.116V521.561L102.785 573.275L14.7577 521.561V418.116Z" stroke="#5B76D5" stroke-opacity="0.08"/>
<path d="M192.234 108.639L280.262 56.9246L368.289 108.639V212.084L280.262 263.799L192.234 212.084V108.639Z" stroke="#5B76D5" stroke-opacity="0.08"/>
<path d="M280.863 261.987L368.891 210.272L456.918 261.987V365.432L368.891 417.147L280.863 365.432V261.987Z" stroke="#5B76D5" stroke-opacity="0.08"/>
<path d="M103.496 261.987L191.523 210.272L279.551 261.987V365.432L191.523 417.147L103.496 365.432V261.987Z" stroke="#5B76D5" stroke-opacity="0.08"/>
<path d="M192.234 418.116L280.262 366.401L368.289 418.116V521.561L280.262 573.275L192.234 521.561V418.116Z" stroke="#5B76D5" stroke-opacity="0.08"/>
<path d="M280.262 365.821L368.789 417.83V521.847L280.262 573.855L191.734 521.847V417.83L280.262 365.821Z" fill="#D2E0EE" fill-opacity="0.18"/>
<path d="M15.3535 521.562V418.149L102.794 366.443V262.61L192.243 210.063V108.332L280.193 56.8359" stroke="#1124D0" stroke-opacity="0.13"/>
<path d="M280.809 466.011V361.2L369.017 310.005V206.232L457.917 154V52.3015L546.47 0.761719" stroke="#5ABDE8"/>
</svg>
