<svg width="1399" height="742" viewBox="0 0 1399 742" fill="none" xmlns="http://www.w3.org/2000/svg">
<g filter="url(#filter0_f_510_163)">
<path d="M1345.26 279.191L1372.96 374.985M1345.26 279.191L1344.05 417.194M1345.26 279.191L1260.32 190.724L1264.16 313.664M1345.26 279.191L1264.16 313.664M1372.96 374.985L1344.05 417.194M1372.96 374.985L1345.79 500.173M1344.05 417.194L1264.16 313.664M1344.05 417.194L1221.04 446.164M1344.05 417.194L1283.39 506.383M1344.05 417.194L1345.79 500.173M1264.16 313.664L1221.04 446.164M1221.04 446.164L1283.39 506.383M1283.39 506.383L1345.79 500.173M1283.39 506.383L1268.87 573.264M1283.39 506.383L1188.86 519.984M1345.79 500.173L1268.87 573.264M1345.79 500.173L1313.15 559.53M1268.87 573.264L1313.15 559.53M1268.87 573.264L1224.23 630.016M1268.87 573.264L1157.87 604.839L1188.86 519.984M1268.87 573.264L1188.86 519.984M1313.15 559.53L1224.23 630.016M1224.23 630.016L1155.64 615.129L1106.75 658.388L1224.23 630.016Z" stroke="#E7E7E7" stroke-opacity="0.26"/>
</g>
<path d="M1345.26 279.191L1372.96 374.985M1345.26 279.191L1344.05 417.194M1345.26 279.191L1260.32 190.724L1264.16 313.664M1345.26 279.191L1264.16 313.664M1372.96 374.985L1344.05 417.194M1372.96 374.985L1345.79 500.173M1344.05 417.194L1264.16 313.664M1344.05 417.194L1221.04 446.164M1344.05 417.194L1283.39 506.383M1344.05 417.194L1345.79 500.173M1264.16 313.664L1221.04 446.164M1221.04 446.164L1283.39 506.383M1283.39 506.383L1345.79 500.173M1283.39 506.383L1268.87 573.264M1283.39 506.383L1188.86 519.984M1345.79 500.173L1268.87 573.264M1345.79 500.173L1313.15 559.53M1268.87 573.264L1313.15 559.53M1268.87 573.264L1224.23 630.016M1268.87 573.264L1157.87 604.839L1188.86 519.984M1268.87 573.264L1188.86 519.984M1313.15 559.53L1224.23 630.016M1224.23 630.016L1155.64 615.129L1106.75 658.388L1224.23 630.016Z" stroke="#E7E7E7" stroke-opacity="0.26"/>
<g filter="url(#filter1_f_510_163)">
<path d="M57.2414 274.134L32.73 328.81M57.2414 274.134L46.3937 356.349M57.2414 274.134L115.205 228.619L102.607 301.447M57.2414 274.134L102.607 301.447M32.73 328.81L46.3937 356.349M32.73 328.81L38.3977 405.576M46.3937 356.349L102.607 301.447M46.3937 356.349L117.154 383.902M46.3937 356.349L75.0055 414.504M46.3937 356.349L38.3977 405.576M102.607 301.447L117.154 383.902M117.154 383.902L75.0055 414.504M75.0055 414.504L38.3977 405.576M75.0055 414.504L78.0334 455.516M75.0055 414.504L130.112 430.524M38.3977 405.576L78.0334 455.516M38.3977 405.576L52.8378 443.631M78.0334 455.516L52.8378 443.631M78.0334 455.516L99.8348 493.027M78.0334 455.516L141.433 483.612L130.112 430.524M78.0334 455.516L130.112 430.524M52.8378 443.631L99.8348 493.027M99.8348 493.027L141.898 489.922L167.363 519.761L99.8348 493.027Z" stroke="#DDE6E5" stroke-opacity="0.19"/>
</g>
<path d="M57.2414 274.134L32.73 328.81M57.2414 274.134L46.3937 356.349M57.2414 274.134L115.205 228.619L102.607 301.447M57.2414 274.134L102.607 301.447M32.73 328.81L46.3937 356.349M32.73 328.81L38.3977 405.576M46.3937 356.349L102.607 301.447M46.3937 356.349L117.154 383.902M46.3937 356.349L75.0055 414.504M46.3937 356.349L38.3977 405.576M102.607 301.447L117.154 383.902M117.154 383.902L75.0055 414.504M75.0055 414.504L38.3977 405.576M75.0055 414.504L78.0334 455.516M75.0055 414.504L130.112 430.524M38.3977 405.576L78.0334 455.516M38.3977 405.576L52.8378 443.631M78.0334 455.516L52.8378 443.631M78.0334 455.516L99.8348 493.027M78.0334 455.516L141.433 483.612L130.112 430.524M78.0334 455.516L130.112 430.524M52.8378 443.631L99.8348 493.027M99.8348 493.027L141.898 489.922L167.363 519.761L99.8348 493.027Z" stroke="#DDE6E5" stroke-opacity="0.19"/>
<circle cx="285.967" cy="321.713" r="260.453" transform="rotate(1.63658 285.967 321.713)" fill="url(#paint0_radial_510_163)"/>
<circle cx="1008.56" cy="370.74" r="370.64" transform="rotate(141.331 1008.56 370.74)" fill="url(#paint1_radial_510_163)"/>
<defs>
<filter id="filter0_f_510_163" x="1102.41" y="185.439" width="275.059" height="477.435" filterUnits="userSpaceOnUse" color-interpolation-filters="sRGB">
<feFlood flood-opacity="0" result="BackgroundImageFix"/>
<feBlend mode="normal" in="SourceGraphic" in2="BackgroundImageFix" result="shape"/>
<feGaussianBlur stdDeviation="2" result="effect1_foregroundBlur_510_163"/>
</filter>
<filter id="filter1_f_510_163" x="28.2227" y="223.422" width="143.52" height="300.805" filterUnits="userSpaceOnUse" color-interpolation-filters="sRGB">
<feFlood flood-opacity="0" result="BackgroundImageFix"/>
<feBlend mode="normal" in="SourceGraphic" in2="BackgroundImageFix" result="shape"/>
<feGaussianBlur stdDeviation="2" result="effect1_foregroundBlur_510_163"/>
</filter>
<radialGradient id="paint0_radial_510_163" cx="0" cy="0" r="1" gradientUnits="userSpaceOnUse" gradientTransform="translate(108.538 326.782) rotate(-10.832) scale(263.702 582.632)">
<stop stop-color="#3B93C5" stop-opacity="0.15"/>
<stop offset="1" stop-color="#D9D9D9" stop-opacity="0"/>
</radialGradient>
<radialGradient id="paint1_radial_510_163" cx="0" cy="0" r="1" gradientUnits="userSpaceOnUse" gradientTransform="translate(756.074 377.954) rotate(-10.832) scale(375.262 829.118)">
<stop stop-color="#3B93C5" stop-opacity="0.15"/>
<stop offset="1" stop-color="#D9D9D9" stop-opacity="0"/>
</radialGradient>
</defs>
</svg>

